solid OpenSCAD_Model
  facet normal -1 0 0
    outer loop
      vertex -30 -40 -15
      vertex -30 40 15
      vertex -30 40 -15
    endloop
  endfacet
  facet normal -1 -0 0
    outer loop
      vertex -30 40 15
      vertex -30 -40 -15
      vertex -30 -40 15
    endloop
  endfacet
  facet normal 0 0 1
    outer loop
      vertex 30 40 15
      vertex 27 37 15
      vertex 30 -40 15
    endloop
  endfacet
  facet normal 0 0 1
    outer loop
      vertex 30 40 15
      vertex -27 37 15
      vertex 27 37 15
    endloop
  endfacet
  facet normal 0 0 1
    outer loop
      vertex -27 37 15
      vertex -30 40 15
      vertex -27 -37 15
    endloop
  endfacet
  facet normal -0 0 1
    outer loop
      vertex -30 40 15
      vertex -27 37 15
      vertex 30 40 15
    endloop
  endfacet
  facet normal -0 0 1
    outer loop
      vertex 27 -37 15
      vertex 30 -40 15
      vertex 27 37 15
    endloop
  endfacet
  facet normal -0 0 1
    outer loop
      vertex -27 -37 15
      vertex 30 -40 15
      vertex 27 -37 15
    endloop
  endfacet
  facet normal 0 0 1
    outer loop
      vertex -27 -37 15
      vertex -30 -40 15
      vertex 30 -40 15
    endloop
  endfacet
  facet normal 0 0 1
    outer loop
      vertex -30 -40 15
      vertex -27 -37 15
      vertex -30 40 15
    endloop
  endfacet
  facet normal 1 -0 0
    outer loop
      vertex 30 -40 15
      vertex 30 40 -15
      vertex 30 40 15
    endloop
  endfacet
  facet normal 1 0 0
    outer loop
      vertex 30 40 -15
      vertex 30 -40 15
      vertex 30 -40 -15
    endloop
  endfacet
  facet normal 0 1 -0
    outer loop
      vertex 30 40 -15
      vertex -30 40 15
      vertex 30 40 15
    endloop
  endfacet
  facet normal 0 1 0
    outer loop
      vertex -30 40 15
      vertex 30 40 -15
      vertex -30 40 -15
    endloop
  endfacet
  facet normal 0 0 -1
    outer loop
      vertex 30 -40 -15
      vertex 10 0 -15
      vertex 30 40 -15
    endloop
  endfacet
  facet normal 0 0 -1
    outer loop
      vertex 30 -40 -15
      vertex 9.78148 -2.07912 -15
      vertex 10 0 -15
    endloop
  endfacet
  facet normal 0 0 -1
    outer loop
      vertex 30 -40 -15
      vertex 9.13545 -4.06737 -15
      vertex 9.78148 -2.07912 -15
    endloop
  endfacet
  facet normal 0 0 -1
    outer loop
      vertex 30 -40 -15
      vertex 8.09017 -5.87785 -15
      vertex 9.13545 -4.06737 -15
    endloop
  endfacet
  facet normal 0 0 -1
    outer loop
      vertex 30 -40 -15
      vertex 6.69131 -7.43145 -15
      vertex 8.09017 -5.87785 -15
    endloop
  endfacet
  facet normal 0 0 -1
    outer loop
      vertex 30 -40 -15
      vertex 5 -8.66025 -15
      vertex 6.69131 -7.43145 -15
    endloop
  endfacet
  facet normal 0 0 -1
    outer loop
      vertex 30 -40 -15
      vertex 3.09017 -9.51056 -15
      vertex 5 -8.66025 -15
    endloop
  endfacet
  facet normal 0 0 -1
    outer loop
      vertex 30 -40 -15
      vertex 1.04528 -9.94522 -15
      vertex 3.09017 -9.51056 -15
    endloop
  endfacet
  facet normal 0 0 -1
    outer loop
      vertex 30 -40 -15
      vertex -1.04528 -9.94522 -15
      vertex 1.04528 -9.94522 -15
    endloop
  endfacet
  facet normal 0 0 -1
    outer loop
      vertex -30 -40 -15
      vertex -1.04528 -9.94522 -15
      vertex 30 -40 -15
    endloop
  endfacet
  facet normal -0 0 -1
    outer loop
      vertex -1.04528 -9.94522 -15
      vertex -30 -40 -15
      vertex -3.09017 -9.51056 -15
    endloop
  endfacet
  facet normal -0 0 -1
    outer loop
      vertex -3.09017 -9.51056 -15
      vertex -30 -40 -15
      vertex -5 -8.66025 -15
    endloop
  endfacet
  facet normal -0 0 -1
    outer loop
      vertex -9.78148 -2.07912 -15
      vertex -30 -40 -15
      vertex -10 0 -15
    endloop
  endfacet
  facet normal -0 0 -1
    outer loop
      vertex -9.13545 -4.06737 -15
      vertex -30 -40 -15
      vertex -9.78148 -2.07912 -15
    endloop
  endfacet
  facet normal -0 0 -1
    outer loop
      vertex -8.09017 -5.87785 -15
      vertex -30 -40 -15
      vertex -9.13545 -4.06737 -15
    endloop
  endfacet
  facet normal -0 0 -1
    outer loop
      vertex -6.69131 -7.43145 -15
      vertex -30 -40 -15
      vertex -8.09017 -5.87785 -15
    endloop
  endfacet
  facet normal -0 0 -1
    outer loop
      vertex -5 -8.66025 -15
      vertex -30 -40 -15
      vertex -6.69131 -7.43145 -15
    endloop
  endfacet
  facet normal 0 0 -1
    outer loop
      vertex 9.78148 2.07912 -15
      vertex 30 40 -15
      vertex 10 0 -15
    endloop
  endfacet
  facet normal 0 0 -1
    outer loop
      vertex 9.13545 4.06737 -15
      vertex 30 40 -15
      vertex 9.78148 2.07912 -15
    endloop
  endfacet
  facet normal 0 0 -1
    outer loop
      vertex 8.09017 5.87785 -15
      vertex 30 40 -15
      vertex 9.13545 4.06737 -15
    endloop
  endfacet
  facet normal 0 0 -1
    outer loop
      vertex 6.69131 7.43145 -15
      vertex 30 40 -15
      vertex 8.09017 5.87785 -15
    endloop
  endfacet
  facet normal 0 0 -1
    outer loop
      vertex 5 8.66025 -15
      vertex 30 40 -15
      vertex 6.69131 7.43145 -15
    endloop
  endfacet
  facet normal 0 0 -1
    outer loop
      vertex 3.09017 9.51056 -15
      vertex 30 40 -15
      vertex 5 8.66025 -15
    endloop
  endfacet
  facet normal 0 0 -1
    outer loop
      vertex 1.04528 9.94522 -15
      vertex 30 40 -15
      vertex 3.09017 9.51056 -15
    endloop
  endfacet
  facet normal 0 0 -1
    outer loop
      vertex -1.04528 9.94522 -15
      vertex 30 40 -15
      vertex 1.04528 9.94522 -15
    endloop
  endfacet
  facet normal 0 0 -1
    outer loop
      vertex -30 40 -15
      vertex -1.04528 9.94522 -15
      vertex -3.09017 9.51056 -15
    endloop
  endfacet
  facet normal 0 0 -1
    outer loop
      vertex -30 40 -15
      vertex -3.09017 9.51056 -15
      vertex -5 8.66025 -15
    endloop
  endfacet
  facet normal 0 0 -1
    outer loop
      vertex -30 40 -15
      vertex -5 8.66025 -15
      vertex -6.69131 7.43145 -15
    endloop
  endfacet
  facet normal 0 0 -1
    outer loop
      vertex -30 40 -15
      vertex -10 0 -15
      vertex -30 -40 -15
    endloop
  endfacet
  facet normal 0 0 -1
    outer loop
      vertex -10 0 -15
      vertex -30 40 -15
      vertex -9.78148 2.07912 -15
    endloop
  endfacet
  facet normal 0 0 -1
    outer loop
      vertex -1.04528 9.94522 -15
      vertex -30 40 -15
      vertex 30 40 -15
    endloop
  endfacet
  facet normal 0 0 -1
    outer loop
      vertex -8.09017 5.87785 -15
      vertex -30 40 -15
      vertex -6.69131 7.43145 -15
    endloop
  endfacet
  facet normal 0 0 -1
    outer loop
      vertex -9.13545 4.06737 -15
      vertex -30 40 -15
      vertex -8.09017 5.87785 -15
    endloop
  endfacet
  facet normal 0 0 -1
    outer loop
      vertex -9.78148 2.07912 -15
      vertex -30 40 -15
      vertex -9.13545 4.06737 -15
    endloop
  endfacet
  facet normal 0 -1 0
    outer loop
      vertex -30 -40 -15
      vertex 30 -40 15
      vertex -30 -40 15
    endloop
  endfacet
  facet normal 0 -1 -0
    outer loop
      vertex 30 -40 15
      vertex -30 -40 -15
      vertex 30 -40 -15
    endloop
  endfacet
  facet normal 1 -0 0
    outer loop
      vertex -27 -37 15
      vertex -27 37 -10
      vertex -27 37 15
    endloop
  endfacet
  facet normal 1 0 0
    outer loop
      vertex -27 37 -10
      vertex -27 -37 15
      vertex -27 -37 -10
    endloop
  endfacet
  facet normal -1 0 0
    outer loop
      vertex 27 -37 -10
      vertex 27 37 15
      vertex 27 37 -10
    endloop
  endfacet
  facet normal -1 -0 0
    outer loop
      vertex 27 37 15
      vertex 27 -37 -10
      vertex 27 -37 15
    endloop
  endfacet
  facet normal 0 0 1
    outer loop
      vertex 27 37 -10
      vertex 10 0 -10
      vertex 27 -37 -10
    endloop
  endfacet
  facet normal 0 0 1
    outer loop
      vertex 27 37 -10
      vertex 9.78148 2.07912 -10
      vertex 10 0 -10
    endloop
  endfacet
  facet normal 0 0 1
    outer loop
      vertex 27 37 -10
      vertex 9.13545 4.06737 -10
      vertex 9.78148 2.07912 -10
    endloop
  endfacet
  facet normal 0 0 1
    outer loop
      vertex 27 37 -10
      vertex 8.09017 5.87785 -10
      vertex 9.13545 4.06737 -10
    endloop
  endfacet
  facet normal 0 0 1
    outer loop
      vertex 27 37 -10
      vertex 6.69131 7.43145 -10
      vertex 8.09017 5.87785 -10
    endloop
  endfacet
  facet normal 0 0 1
    outer loop
      vertex 27 37 -10
      vertex 5 8.66025 -10
      vertex 6.69131 7.43145 -10
    endloop
  endfacet
  facet normal 0 0 1
    outer loop
      vertex 27 37 -10
      vertex 3.09017 9.51056 -10
      vertex 5 8.66025 -10
    endloop
  endfacet
  facet normal 0 0 1
    outer loop
      vertex 27 37 -10
      vertex 1.04528 9.94522 -10
      vertex 3.09017 9.51056 -10
    endloop
  endfacet
  facet normal 0 0 1
    outer loop
      vertex 27 37 -10
      vertex -1.04528 9.94522 -10
      vertex 1.04528 9.94522 -10
    endloop
  endfacet
  facet normal -0 0 1
    outer loop
      vertex -27 37 -10
      vertex -1.04528 9.94522 -10
      vertex 27 37 -10
    endloop
  endfacet
  facet normal 0 0 1
    outer loop
      vertex -1.04528 9.94522 -10
      vertex -27 37 -10
      vertex -3.09017 9.51056 -10
    endloop
  endfacet
  facet normal 0 0 1
    outer loop
      vertex -3.09017 9.51056 -10
      vertex -27 37 -10
      vertex -5 8.66025 -10
    endloop
  endfacet
  facet normal 0 0 1
    outer loop
      vertex -9.78148 2.07912 -10
      vertex -27 37 -10
      vertex -10 0 -10
    endloop
  endfacet
  facet normal 0 0 1
    outer loop
      vertex -9.13545 4.06737 -10
      vertex -27 37 -10
      vertex -9.78148 2.07912 -10
    endloop
  endfacet
  facet normal 0 0 1
    outer loop
      vertex -8.09017 5.87785 -10
      vertex -27 37 -10
      vertex -9.13545 4.06737 -10
    endloop
  endfacet
  facet normal 0 0 1
    outer loop
      vertex -6.69131 7.43145 -10
      vertex -27 37 -10
      vertex -8.09017 5.87785 -10
    endloop
  endfacet
  facet normal 0 0 1
    outer loop
      vertex -5 8.66025 -10
      vertex -27 37 -10
      vertex -6.69131 7.43145 -10
    endloop
  endfacet
  facet normal -0 0 1
    outer loop
      vertex 9.78148 -2.07912 -10
      vertex 27 -37 -10
      vertex 10 0 -10
    endloop
  endfacet
  facet normal -0 0 1
    outer loop
      vertex 9.13545 -4.06737 -10
      vertex 27 -37 -10
      vertex 9.78148 -2.07912 -10
    endloop
  endfacet
  facet normal -0 0 1
    outer loop
      vertex 8.09017 -5.87785 -10
      vertex 27 -37 -10
      vertex 9.13545 -4.06737 -10
    endloop
  endfacet
  facet normal -0 0 1
    outer loop
      vertex 6.69131 -7.43145 -10
      vertex 27 -37 -10
      vertex 8.09017 -5.87785 -10
    endloop
  endfacet
  facet normal -0 0 1
    outer loop
      vertex 5 -8.66025 -10
      vertex 27 -37 -10
      vertex 6.69131 -7.43145 -10
    endloop
  endfacet
  facet normal -0 0 1
    outer loop
      vertex 3.09017 -9.51056 -10
      vertex 27 -37 -10
      vertex 5 -8.66025 -10
    endloop
  endfacet
  facet normal -0 0 1
    outer loop
      vertex 1.04528 -9.94522 -10
      vertex 27 -37 -10
      vertex 3.09017 -9.51056 -10
    endloop
  endfacet
  facet normal -0 0 1
    outer loop
      vertex -1.04528 -9.94522 -10
      vertex 27 -37 -10
      vertex 1.04528 -9.94522 -10
    endloop
  endfacet
  facet normal 0 0 1
    outer loop
      vertex -27 -37 -10
      vertex -1.04528 -9.94522 -10
      vertex -3.09017 -9.51056 -10
    endloop
  endfacet
  facet normal 0 0 1
    outer loop
      vertex -27 -37 -10
      vertex -3.09017 -9.51056 -10
      vertex -5 -8.66025 -10
    endloop
  endfacet
  facet normal 0 0 1
    outer loop
      vertex -27 -37 -10
      vertex -5 -8.66025 -10
      vertex -6.69131 -7.43145 -10
    endloop
  endfacet
  facet normal 0 0 1
    outer loop
      vertex -27 -37 -10
      vertex -10 0 -10
      vertex -27 37 -10
    endloop
  endfacet
  facet normal 0 0 1
    outer loop
      vertex -10 0 -10
      vertex -27 -37 -10
      vertex -9.78148 -2.07912 -10
    endloop
  endfacet
  facet normal 0 0 1
    outer loop
      vertex -1.04528 -9.94522 -10
      vertex -27 -37 -10
      vertex 27 -37 -10
    endloop
  endfacet
  facet normal 0 0 1
    outer loop
      vertex -8.09017 -5.87785 -10
      vertex -27 -37 -10
      vertex -6.69131 -7.43145 -10
    endloop
  endfacet
  facet normal 0 0 1
    outer loop
      vertex -9.13545 -4.06737 -10
      vertex -27 -37 -10
      vertex -8.09017 -5.87785 -10
    endloop
  endfacet
  facet normal 0 0 1
    outer loop
      vertex -9.78148 -2.07912 -10
      vertex -27 -37 -10
      vertex -9.13545 -4.06737 -10
    endloop
  endfacet
  facet normal 0 1 -0
    outer loop
      vertex 27 -37 -10
      vertex -27 -37 15
      vertex 27 -37 15
    endloop
  endfacet
  facet normal 0 1 0
    outer loop
      vertex -27 -37 15
      vertex 27 -37 -10
      vertex -27 -37 -10
    endloop
  endfacet
  facet normal 0 -1 0
    outer loop
      vertex -27 37 -10
      vertex 27 37 15
      vertex -27 37 15
    endloop
  endfacet
  facet normal 0 -1 -0
    outer loop
      vertex 27 37 15
      vertex -27 37 -10
      vertex 27 37 -10
    endloop
  endfacet
  facet normal -0.994522 -0.104526 0
    outer loop
      vertex 10 0 -15
      vertex 9.78148 2.07912 -10
      vertex 9.78148 2.07912 -15
    endloop
  endfacet
  facet normal -0.994522 -0.104526 0
    outer loop
      vertex 9.78148 2.07912 -10
      vertex 10 0 -15
      vertex 10 0 -10
    endloop
  endfacet
  facet normal 0.994522 -0.104526 0
    outer loop
      vertex -10 0 -10
      vertex -9.78148 2.07912 -15
      vertex -9.78148 2.07912 -10
    endloop
  endfacet
  facet normal 0.994522 -0.104526 0
    outer loop
      vertex -9.78148 2.07912 -15
      vertex -10 0 -10
      vertex -10 0 -15
    endloop
  endfacet
  facet normal 0 -1 0
    outer loop
      vertex -1.04528 9.94522 -15
      vertex 1.04528 9.94522 -10
      vertex -1.04528 9.94522 -10
    endloop
  endfacet
  facet normal 0 -1 -0
    outer loop
      vertex 1.04528 9.94522 -10
      vertex -1.04528 9.94522 -15
      vertex 1.04528 9.94522 -15
    endloop
  endfacet
  facet normal -0.587783 -0.809019 0
    outer loop
      vertex 5 8.66025 -15
      vertex 6.69131 7.43145 -10
      vertex 5 8.66025 -10
    endloop
  endfacet
  facet normal -0.587783 -0.809019 -0
    outer loop
      vertex 6.69131 7.43145 -10
      vertex 5 8.66025 -15
      vertex 6.69131 7.43145 -15
    endloop
  endfacet
  facet normal -0.406736 -0.913546 0
    outer loop
      vertex 3.09017 9.51056 -15
      vertex 5 8.66025 -10
      vertex 3.09017 9.51056 -10
    endloop
  endfacet
  facet normal -0.406736 -0.913546 -0
    outer loop
      vertex 5 8.66025 -10
      vertex 3.09017 9.51056 -15
      vertex 5 8.66025 -15
    endloop
  endfacet
  facet normal 0.743147 -0.669129 0
    outer loop
      vertex -8.09017 5.87785 -10
      vertex -6.69131 7.43145 -15
      vertex -6.69131 7.43145 -10
    endloop
  endfacet
  facet normal 0.743147 -0.669129 0
    outer loop
      vertex -6.69131 7.43145 -15
      vertex -8.09017 5.87785 -10
      vertex -8.09017 5.87785 -15
    endloop
  endfacet
  facet normal 0.866026 -0.5 0
    outer loop
      vertex -9.13545 4.06737 -10
      vertex -8.09017 5.87785 -15
      vertex -8.09017 5.87785 -10
    endloop
  endfacet
  facet normal 0.866026 -0.5 0
    outer loop
      vertex -8.09017 5.87785 -15
      vertex -9.13545 4.06737 -10
      vertex -9.13545 4.06737 -15
    endloop
  endfacet
  facet normal 0.406736 -0.913546 0
    outer loop
      vertex -5 8.66025 -15
      vertex -3.09017 9.51056 -10
      vertex -5 8.66025 -10
    endloop
  endfacet
  facet normal 0.406736 -0.913546 0
    outer loop
      vertex -3.09017 9.51056 -10
      vertex -5 8.66025 -15
      vertex -3.09017 9.51056 -15
    endloop
  endfacet
  facet normal -0.866026 -0.5 0
    outer loop
      vertex 9.13545 4.06737 -15
      vertex 8.09017 5.87785 -10
      vertex 8.09017 5.87785 -15
    endloop
  endfacet
  facet normal -0.866026 -0.5 0
    outer loop
      vertex 8.09017 5.87785 -10
      vertex 9.13545 4.06737 -15
      vertex 9.13545 4.06737 -10
    endloop
  endfacet
  facet normal -0.951055 -0.309021 0
    outer loop
      vertex 9.78148 2.07912 -15
      vertex 9.13545 4.06737 -10
      vertex 9.13545 4.06737 -15
    endloop
  endfacet
  facet normal -0.951055 -0.309021 0
    outer loop
      vertex 9.13545 4.06737 -10
      vertex 9.78148 2.07912 -15
      vertex 9.78148 2.07912 -10
    endloop
  endfacet
  facet normal -0.743147 -0.669129 0
    outer loop
      vertex 8.09017 5.87785 -15
      vertex 6.69131 7.43145 -10
      vertex 6.69131 7.43145 -15
    endloop
  endfacet
  facet normal -0.743147 -0.669129 0
    outer loop
      vertex 6.69131 7.43145 -10
      vertex 8.09017 5.87785 -15
      vertex 8.09017 5.87785 -10
    endloop
  endfacet
  facet normal -0.207914 -0.978147 0
    outer loop
      vertex 1.04528 9.94522 -15
      vertex 3.09017 9.51056 -10
      vertex 1.04528 9.94522 -10
    endloop
  endfacet
  facet normal -0.207914 -0.978147 -0
    outer loop
      vertex 3.09017 9.51056 -10
      vertex 1.04528 9.94522 -15
      vertex 3.09017 9.51056 -15
    endloop
  endfacet
  facet normal 0.951055 -0.309021 0
    outer loop
      vertex -9.78148 2.07912 -10
      vertex -9.13545 4.06737 -15
      vertex -9.13545 4.06737 -10
    endloop
  endfacet
  facet normal 0.951055 -0.309021 0
    outer loop
      vertex -9.13545 4.06737 -15
      vertex -9.78148 2.07912 -10
      vertex -9.78148 2.07912 -15
    endloop
  endfacet
  facet normal 0.587783 -0.809019 0
    outer loop
      vertex -6.69131 7.43145 -15
      vertex -5 8.66025 -10
      vertex -6.69131 7.43145 -10
    endloop
  endfacet
  facet normal 0.587783 -0.809019 0
    outer loop
      vertex -5 8.66025 -10
      vertex -6.69131 7.43145 -15
      vertex -5 8.66025 -15
    endloop
  endfacet
  facet normal 0.207914 -0.978147 0
    outer loop
      vertex -3.09017 9.51056 -15
      vertex -1.04528 9.94522 -10
      vertex -3.09017 9.51056 -10
    endloop
  endfacet
  facet normal 0.207914 -0.978147 0
    outer loop
      vertex -1.04528 9.94522 -10
      vertex -3.09017 9.51056 -15
      vertex -1.04528 9.94522 -15
    endloop
  endfacet
  facet normal -0.994522 0.104526 0
    outer loop
      vertex 9.78148 -2.07912 -15
      vertex 10 0 -10
      vertex 10 0 -15
    endloop
  endfacet
  facet normal -0.994522 0.104526 0
    outer loop
      vertex 10 0 -10
      vertex 9.78148 -2.07912 -15
      vertex 9.78148 -2.07912 -10
    endloop
  endfacet
  facet normal 0.207914 0.978147 -0
    outer loop
      vertex -1.04528 -9.94522 -15
      vertex -3.09017 -9.51056 -10
      vertex -1.04528 -9.94522 -10
    endloop
  endfacet
  facet normal 0.207914 0.978147 0
    outer loop
      vertex -3.09017 -9.51056 -10
      vertex -1.04528 -9.94522 -15
      vertex -3.09017 -9.51056 -15
    endloop
  endfacet
  facet normal -0.207914 0.978147 0
    outer loop
      vertex 3.09017 -9.51056 -15
      vertex 1.04528 -9.94522 -10
      vertex 3.09017 -9.51056 -10
    endloop
  endfacet
  facet normal -0.207914 0.978147 0
    outer loop
      vertex 1.04528 -9.94522 -10
      vertex 3.09017 -9.51056 -15
      vertex 1.04528 -9.94522 -15
    endloop
  endfacet
  facet normal -0.743147 0.669129 0
    outer loop
      vertex 6.69131 -7.43145 -15
      vertex 8.09017 -5.87785 -10
      vertex 8.09017 -5.87785 -15
    endloop
  endfacet
  facet normal -0.743147 0.669129 0
    outer loop
      vertex 8.09017 -5.87785 -10
      vertex 6.69131 -7.43145 -15
      vertex 6.69131 -7.43145 -10
    endloop
  endfacet
  facet normal -0.951055 0.309021 0
    outer loop
      vertex 9.13545 -4.06737 -15
      vertex 9.78148 -2.07912 -10
      vertex 9.78148 -2.07912 -15
    endloop
  endfacet
  facet normal -0.951055 0.309021 0
    outer loop
      vertex 9.78148 -2.07912 -10
      vertex 9.13545 -4.06737 -15
      vertex 9.13545 -4.06737 -10
    endloop
  endfacet
  facet normal -0.866026 0.5 0
    outer loop
      vertex 8.09017 -5.87785 -15
      vertex 9.13545 -4.06737 -10
      vertex 9.13545 -4.06737 -15
    endloop
  endfacet
  facet normal -0.866026 0.5 0
    outer loop
      vertex 9.13545 -4.06737 -10
      vertex 8.09017 -5.87785 -15
      vertex 8.09017 -5.87785 -10
    endloop
  endfacet
  facet normal 0.866026 0.5 0
    outer loop
      vertex -8.09017 -5.87785 -10
      vertex -9.13545 -4.06737 -15
      vertex -9.13545 -4.06737 -10
    endloop
  endfacet
  facet normal 0.866026 0.5 0
    outer loop
      vertex -9.13545 -4.06737 -15
      vertex -8.09017 -5.87785 -10
      vertex -8.09017 -5.87785 -15
    endloop
  endfacet
  facet normal 0.994522 0.104526 0
    outer loop
      vertex -9.78148 -2.07912 -10
      vertex -10 0 -15
      vertex -10 0 -10
    endloop
  endfacet
  facet normal 0.994522 0.104526 0
    outer loop
      vertex -10 0 -15
      vertex -9.78148 -2.07912 -10
      vertex -9.78148 -2.07912 -15
    endloop
  endfacet
  facet normal 0.951055 0.309021 0
    outer loop
      vertex -9.13545 -4.06737 -10
      vertex -9.78148 -2.07912 -15
      vertex -9.78148 -2.07912 -10
    endloop
  endfacet
  facet normal 0.951055 0.309021 0
    outer loop
      vertex -9.78148 -2.07912 -15
      vertex -9.13545 -4.06737 -10
      vertex -9.13545 -4.06737 -15
    endloop
  endfacet
  facet normal -0.587783 0.809019 0
    outer loop
      vertex 6.69131 -7.43145 -15
      vertex 5 -8.66025 -10
      vertex 6.69131 -7.43145 -10
    endloop
  endfacet
  facet normal -0.587783 0.809019 0
    outer loop
      vertex 5 -8.66025 -10
      vertex 6.69131 -7.43145 -15
      vertex 5 -8.66025 -15
    endloop
  endfacet
  facet normal -0.406736 0.913546 0
    outer loop
      vertex 5 -8.66025 -15
      vertex 3.09017 -9.51056 -10
      vertex 5 -8.66025 -10
    endloop
  endfacet
  facet normal -0.406736 0.913546 0
    outer loop
      vertex 3.09017 -9.51056 -10
      vertex 5 -8.66025 -15
      vertex 3.09017 -9.51056 -15
    endloop
  endfacet
  facet normal 0 1 -0
    outer loop
      vertex 1.04528 -9.94522 -15
      vertex -1.04528 -9.94522 -10
      vertex 1.04528 -9.94522 -10
    endloop
  endfacet
  facet normal 0 1 0
    outer loop
      vertex -1.04528 -9.94522 -10
      vertex 1.04528 -9.94522 -15
      vertex -1.04528 -9.94522 -15
    endloop
  endfacet
  facet normal 0.406736 0.913546 -0
    outer loop
      vertex -3.09017 -9.51056 -15
      vertex -5 -8.66025 -10
      vertex -3.09017 -9.51056 -10
    endloop
  endfacet
  facet normal 0.406736 0.913546 0
    outer loop
      vertex -5 -8.66025 -10
      vertex -3.09017 -9.51056 -15
      vertex -5 -8.66025 -15
    endloop
  endfacet
  facet normal 0.743147 0.669129 0
    outer loop
      vertex -6.69131 -7.43145 -10
      vertex -8.09017 -5.87785 -15
      vertex -8.09017 -5.87785 -10
    endloop
  endfacet
  facet normal 0.743147 0.669129 0
    outer loop
      vertex -8.09017 -5.87785 -15
      vertex -6.69131 -7.43145 -10
      vertex -6.69131 -7.43145 -15
    endloop
  endfacet
  facet normal 0.587783 0.809019 -0
    outer loop
      vertex -5 -8.66025 -15
      vertex -6.69131 -7.43145 -10
      vertex -5 -8.66025 -10
    endloop
  endfacet
  facet normal 0.587783 0.809019 0
    outer loop
      vertex -6.69131 -7.43145 -10
      vertex -5 -8.66025 -15
      vertex -6.69131 -7.43145 -15
    endloop
  endfacet
  facet normal -1 0 0
    outer loop
      vertex 69 -41 0.5
      vertex 69 41 3.5
      vertex 69 41 0.5
    endloop
  endfacet
  facet normal -1 -0 0
    outer loop
      vertex 69 41 3.5
      vertex 69 -41 0.5
      vertex 69 -41 3.5
    endloop
  endfacet
  facet normal 0 0 1
    outer loop
      vertex 131 41 3.5
      vertex 110 0 3.5
      vertex 131 -41 3.5
    endloop
  endfacet
  facet normal 0 0 1
    outer loop
      vertex 131 41 3.5
      vertex 109.781 2.07912 3.5
      vertex 110 0 3.5
    endloop
  endfacet
  facet normal 0 0 1
    outer loop
      vertex 131 41 3.5
      vertex 109.135 4.06737 3.5
      vertex 109.781 2.07912 3.5
    endloop
  endfacet
  facet normal 0 0 1
    outer loop
      vertex 131 41 3.5
      vertex 108.09 5.87785 3.5
      vertex 109.135 4.06737 3.5
    endloop
  endfacet
  facet normal 0 0 1
    outer loop
      vertex 131 41 3.5
      vertex 106.691 7.43145 3.5
      vertex 108.09 5.87785 3.5
    endloop
  endfacet
  facet normal 0 0 1
    outer loop
      vertex 131 41 3.5
      vertex 105 8.66025 3.5
      vertex 106.691 7.43145 3.5
    endloop
  endfacet
  facet normal 0 0 1
    outer loop
      vertex 131 41 3.5
      vertex 103.09 9.51056 3.5
      vertex 105 8.66025 3.5
    endloop
  endfacet
  facet normal 0 0 1
    outer loop
      vertex 131 41 3.5
      vertex 101.045 9.94522 3.5
      vertex 103.09 9.51056 3.5
    endloop
  endfacet
  facet normal 0 0 1
    outer loop
      vertex 131 41 3.5
      vertex 98.9547 9.94522 3.5
      vertex 101.045 9.94522 3.5
    endloop
  endfacet
  facet normal -0 0 1
    outer loop
      vertex 69 41 3.5
      vertex 98.9547 9.94522 3.5
      vertex 131 41 3.5
    endloop
  endfacet
  facet normal 0 0 1
    outer loop
      vertex 98.9547 9.94522 3.5
      vertex 69 41 3.5
      vertex 96.9098 9.51056 3.5
    endloop
  endfacet
  facet normal 0 0 1
    outer loop
      vertex 96.9098 9.51056 3.5
      vertex 69 41 3.5
      vertex 95 8.66025 3.5
    endloop
  endfacet
  facet normal 0 0 1
    outer loop
      vertex 90.2185 2.07912 3.5
      vertex 69 41 3.5
      vertex 90 0 3.5
    endloop
  endfacet
  facet normal 0 0 1
    outer loop
      vertex 90.8645 4.06737 3.5
      vertex 69 41 3.5
      vertex 90.2185 2.07912 3.5
    endloop
  endfacet
  facet normal 0 0 1
    outer loop
      vertex 91.9098 5.87785 3.5
      vertex 69 41 3.5
      vertex 90.8645 4.06737 3.5
    endloop
  endfacet
  facet normal 0 0 1
    outer loop
      vertex 93.3087 7.43145 3.5
      vertex 69 41 3.5
      vertex 91.9098 5.87785 3.5
    endloop
  endfacet
  facet normal 0 0 1
    outer loop
      vertex 95 8.66025 3.5
      vertex 69 41 3.5
      vertex 93.3087 7.43145 3.5
    endloop
  endfacet
  facet normal -0 0 1
    outer loop
      vertex 109.781 -2.07912 3.5
      vertex 131 -41 3.5
      vertex 110 0 3.5
    endloop
  endfacet
  facet normal -0 0 1
    outer loop
      vertex 109.135 -4.06737 3.5
      vertex 131 -41 3.5
      vertex 109.781 -2.07912 3.5
    endloop
  endfacet
  facet normal -0 0 1
    outer loop
      vertex 108.09 -5.87785 3.5
      vertex 131 -41 3.5
      vertex 109.135 -4.06737 3.5
    endloop
  endfacet
  facet normal -0 0 1
    outer loop
      vertex 106.691 -7.43145 3.5
      vertex 131 -41 3.5
      vertex 108.09 -5.87785 3.5
    endloop
  endfacet
  facet normal -0 0 1
    outer loop
      vertex 105 -8.66025 3.5
      vertex 131 -41 3.5
      vertex 106.691 -7.43145 3.5
    endloop
  endfacet
  facet normal -0 0 1
    outer loop
      vertex 103.09 -9.51056 3.5
      vertex 131 -41 3.5
      vertex 105 -8.66025 3.5
    endloop
  endfacet
  facet normal -0 0 1
    outer loop
      vertex 101.045 -9.94522 3.5
      vertex 131 -41 3.5
      vertex 103.09 -9.51056 3.5
    endloop
  endfacet
  facet normal -0 0 1
    outer loop
      vertex 98.9547 -9.94522 3.5
      vertex 131 -41 3.5
      vertex 101.045 -9.94522 3.5
    endloop
  endfacet
  facet normal 0 0 1
    outer loop
      vertex 69 -41 3.5
      vertex 98.9547 -9.94522 3.5
      vertex 96.9098 -9.51056 3.5
    endloop
  endfacet
  facet normal 0 0 1
    outer loop
      vertex 69 -41 3.5
      vertex 96.9098 -9.51056 3.5
      vertex 95 -8.66025 3.5
    endloop
  endfacet
  facet normal 0 0 1
    outer loop
      vertex 69 -41 3.5
      vertex 95 -8.66025 3.5
      vertex 93.3087 -7.43145 3.5
    endloop
  endfacet
  facet normal 0 0 1
    outer loop
      vertex 69 -41 3.5
      vertex 90 0 3.5
      vertex 69 41 3.5
    endloop
  endfacet
  facet normal 0 0 1
    outer loop
      vertex 90 0 3.5
      vertex 69 -41 3.5
      vertex 90.2185 -2.07912 3.5
    endloop
  endfacet
  facet normal 0 0 1
    outer loop
      vertex 98.9547 -9.94522 3.5
      vertex 69 -41 3.5
      vertex 131 -41 3.5
    endloop
  endfacet
  facet normal 0 0 1
    outer loop
      vertex 91.9098 -5.87785 3.5
      vertex 69 -41 3.5
      vertex 93.3087 -7.43145 3.5
    endloop
  endfacet
  facet normal 0 0 1
    outer loop
      vertex 90.8645 -4.06737 3.5
      vertex 69 -41 3.5
      vertex 91.9098 -5.87785 3.5
    endloop
  endfacet
  facet normal 0 0 1
    outer loop
      vertex 90.2185 -2.07912 3.5
      vertex 69 -41 3.5
      vertex 90.8645 -4.06737 3.5
    endloop
  endfacet
  facet normal 1 -0 0
    outer loop
      vertex 131 -41 3.5
      vertex 131 41 0.5
      vertex 131 41 3.5
    endloop
  endfacet
  facet normal 1 0 0
    outer loop
      vertex 131 41 0.5
      vertex 131 -41 3.5
      vertex 131 -41 0.5
    endloop
  endfacet
  facet normal 0 0 -1
    outer loop
      vertex 131 -41 0.5
      vertex 110 0 0.5
      vertex 131 41 0.5
    endloop
  endfacet
  facet normal 0 0 -1
    outer loop
      vertex 131 -41 0.5
      vertex 109.781 -2.07912 0.5
      vertex 110 0 0.5
    endloop
  endfacet
  facet normal 0 0 -1
    outer loop
      vertex 131 -41 0.5
      vertex 109.135 -4.06737 0.5
      vertex 109.781 -2.07912 0.5
    endloop
  endfacet
  facet normal 0 0 -1
    outer loop
      vertex 131 -41 0.5
      vertex 108.09 -5.87785 0.5
      vertex 109.135 -4.06737 0.5
    endloop
  endfacet
  facet normal 0 0 -1
    outer loop
      vertex 131 -41 0.5
      vertex 106.691 -7.43145 0.5
      vertex 108.09 -5.87785 0.5
    endloop
  endfacet
  facet normal 0 0 -1
    outer loop
      vertex 131 -41 0.5
      vertex 105 -8.66025 0.5
      vertex 106.691 -7.43145 0.5
    endloop
  endfacet
  facet normal 0 0 -1
    outer loop
      vertex 131 -41 0.5
      vertex 103.09 -9.51056 0.5
      vertex 105 -8.66025 0.5
    endloop
  endfacet
  facet normal 0 0 -1
    outer loop
      vertex 131 -41 0.5
      vertex 101.045 -9.94522 0.5
      vertex 103.09 -9.51056 0.5
    endloop
  endfacet
  facet normal 0 0 -1
    outer loop
      vertex 131 -41 0.5
      vertex 98.9547 -9.94522 0.5
      vertex 101.045 -9.94522 0.5
    endloop
  endfacet
  facet normal 0 0 -1
    outer loop
      vertex 69 -41 0.5
      vertex 98.9547 -9.94522 0.5
      vertex 131 -41 0.5
    endloop
  endfacet
  facet normal -0 0 -1
    outer loop
      vertex 98.9547 -9.94522 0.5
      vertex 69 -41 0.5
      vertex 96.9098 -9.51056 0.5
    endloop
  endfacet
  facet normal -0 0 -1
    outer loop
      vertex 96.9098 -9.51056 0.5
      vertex 69 -41 0.5
      vertex 95 -8.66025 0.5
    endloop
  endfacet
  facet normal -0 0 -1
    outer loop
      vertex 90.2185 -2.07912 0.5
      vertex 69 -41 0.5
      vertex 90 0 0.5
    endloop
  endfacet
  facet normal -0 0 -1
    outer loop
      vertex 90.8645 -4.06737 0.5
      vertex 69 -41 0.5
      vertex 90.2185 -2.07912 0.5
    endloop
  endfacet
  facet normal -0 0 -1
    outer loop
      vertex 91.9098 -5.87785 0.5
      vertex 69 -41 0.5
      vertex 90.8645 -4.06737 0.5
    endloop
  endfacet
  facet normal -0 0 -1
    outer loop
      vertex 93.3087 -7.43145 0.5
      vertex 69 -41 0.5
      vertex 91.9098 -5.87785 0.5
    endloop
  endfacet
  facet normal -0 0 -1
    outer loop
      vertex 95 -8.66025 0.5
      vertex 69 -41 0.5
      vertex 93.3087 -7.43145 0.5
    endloop
  endfacet
  facet normal 0 0 -1
    outer loop
      vertex 109.781 2.07912 0.5
      vertex 131 41 0.5
      vertex 110 0 0.5
    endloop
  endfacet
  facet normal 0 0 -1
    outer loop
      vertex 109.135 4.06737 0.5
      vertex 131 41 0.5
      vertex 109.781 2.07912 0.5
    endloop
  endfacet
  facet normal 0 0 -1
    outer loop
      vertex 108.09 5.87785 0.5
      vertex 131 41 0.5
      vertex 109.135 4.06737 0.5
    endloop
  endfacet
  facet normal 0 0 -1
    outer loop
      vertex 106.691 7.43145 0.5
      vertex 131 41 0.5
      vertex 108.09 5.87785 0.5
    endloop
  endfacet
  facet normal 0 0 -1
    outer loop
      vertex 105 8.66025 0.5
      vertex 131 41 0.5
      vertex 106.691 7.43145 0.5
    endloop
  endfacet
  facet normal 0 0 -1
    outer loop
      vertex 103.09 9.51056 0.5
      vertex 131 41 0.5
      vertex 105 8.66025 0.5
    endloop
  endfacet
  facet normal 0 0 -1
    outer loop
      vertex 101.045 9.94522 0.5
      vertex 131 41 0.5
      vertex 103.09 9.51056 0.5
    endloop
  endfacet
  facet normal 0 0 -1
    outer loop
      vertex 98.9547 9.94522 0.5
      vertex 131 41 0.5
      vertex 101.045 9.94522 0.5
    endloop
  endfacet
  facet normal 0 0 -1
    outer loop
      vertex 69 41 0.5
      vertex 98.9547 9.94522 0.5
      vertex 96.9098 9.51056 0.5
    endloop
  endfacet
  facet normal 0 0 -1
    outer loop
      vertex 69 41 0.5
      vertex 96.9098 9.51056 0.5
      vertex 95 8.66025 0.5
    endloop
  endfacet
  facet normal 0 0 -1
    outer loop
      vertex 69 41 0.5
      vertex 95 8.66025 0.5
      vertex 93.3087 7.43145 0.5
    endloop
  endfacet
  facet normal 0 0 -1
    outer loop
      vertex 69 41 0.5
      vertex 90 0 0.5
      vertex 69 -41 0.5
    endloop
  endfacet
  facet normal 0 0 -1
    outer loop
      vertex 90 0 0.5
      vertex 69 41 0.5
      vertex 90.2185 2.07912 0.5
    endloop
  endfacet
  facet normal 0 0 -1
    outer loop
      vertex 98.9547 9.94522 0.5
      vertex 69 41 0.5
      vertex 131 41 0.5
    endloop
  endfacet
  facet normal 0 0 -1
    outer loop
      vertex 91.9098 5.87785 0.5
      vertex 69 41 0.5
      vertex 93.3087 7.43145 0.5
    endloop
  endfacet
  facet normal 0 0 -1
    outer loop
      vertex 90.8645 4.06737 0.5
      vertex 69 41 0.5
      vertex 91.9098 5.87785 0.5
    endloop
  endfacet
  facet normal 0 0 -1
    outer loop
      vertex 90.2185 2.07912 0.5
      vertex 69 41 0.5
      vertex 90.8645 4.06737 0.5
    endloop
  endfacet
  facet normal 0 -1 0
    outer loop
      vertex 69 -41 0.5
      vertex 131 -41 3.5
      vertex 69 -41 3.5
    endloop
  endfacet
  facet normal 0 -1 -0
    outer loop
      vertex 131 -41 3.5
      vertex 69 -41 0.5
      vertex 131 -41 0.5
    endloop
  endfacet
  facet normal 0 1 -0
    outer loop
      vertex 131 41 0.5
      vertex 69 41 3.5
      vertex 131 41 3.5
    endloop
  endfacet
  facet normal 0 1 0
    outer loop
      vertex 69 41 3.5
      vertex 131 41 0.5
      vertex 69 41 0.5
    endloop
  endfacet
  facet normal -0.866084 -0.499899 0
    outer loop
      vertex 109.135 4.06737 0.5
      vertex 108.09 5.87785 3.5
      vertex 108.09 5.87785 0.5
    endloop
  endfacet
  facet normal -0.866084 -0.499899 0
    outer loop
      vertex 108.09 5.87785 3.5
      vertex 109.135 4.06737 0.5
      vertex 109.135 4.06737 3.5
    endloop
  endfacet
  facet normal 0.994523 -0.104517 0
    outer loop
      vertex 90 0 3.5
      vertex 90.2185 2.07912 0.5
      vertex 90.2185 2.07912 3.5
    endloop
  endfacet
  facet normal 0.994523 -0.104517 0
    outer loop
      vertex 90.2185 2.07912 0.5
      vertex 90 0 3.5
      vertex 90 0 0.5
    endloop
  endfacet
  facet normal -0.743113 -0.669166 0
    outer loop
      vertex 108.09 5.87785 0.5
      vertex 106.691 7.43145 3.5
      vertex 106.691 7.43145 0.5
    endloop
  endfacet
  facet normal -0.743113 -0.669166 0
    outer loop
      vertex 106.691 7.43145 3.5
      vertex 108.09 5.87785 0.5
      vertex 108.09 5.87785 3.5
    endloop
  endfacet
  facet normal -0.207903 -0.978149 0
    outer loop
      vertex 101.045 9.94522 0.5
      vertex 103.09 9.51056 3.5
      vertex 101.045 9.94522 3.5
    endloop
  endfacet
  facet normal -0.207903 -0.978149 -0
    outer loop
      vertex 103.09 9.51056 3.5
      vertex 101.045 9.94522 0.5
      vertex 103.09 9.51056 0.5
    endloop
  endfacet
  facet normal 0.587785 -0.809017 0
    outer loop
      vertex 93.3087 7.43145 0.5
      vertex 95 8.66025 3.5
      vertex 93.3087 7.43145 3.5
    endloop
  endfacet
  facet normal 0.587785 -0.809017 0
    outer loop
      vertex 95 8.66025 3.5
      vertex 93.3087 7.43145 0.5
      vertex 95 8.66025 0.5
    endloop
  endfacet
  facet normal 0.95106 -0.309008 0
    outer loop
      vertex 90.2185 2.07912 3.5
      vertex 90.8645 4.06737 0.5
      vertex 90.8645 4.06737 3.5
    endloop
  endfacet
  facet normal 0.95106 -0.309008 0
    outer loop
      vertex 90.8645 4.06737 0.5
      vertex 90.2185 2.07912 3.5
      vertex 90.2185 2.07912 0.5
    endloop
  endfacet
  facet normal 0.743137 -0.669139 0
    outer loop
      vertex 91.9098 5.87785 3.5
      vertex 93.3087 7.43145 0.5
      vertex 93.3087 7.43145 3.5
    endloop
  endfacet
  facet normal 0.743137 -0.669139 0
    outer loop
      vertex 93.3087 7.43145 0.5
      vertex 91.9098 5.87785 3.5
      vertex 91.9098 5.87785 0.5
    endloop
  endfacet
  facet normal -0.994498 0.104754 0
    outer loop
      vertex 109.781 -2.07912 0.5
      vertex 110 0 3.5
      vertex 110 0 0.5
    endloop
  endfacet
  facet normal -0.994498 0.104754 0
    outer loop
      vertex 110 0 3.5
      vertex 109.781 -2.07912 0.5
      vertex 109.781 -2.07912 3.5
    endloop
  endfacet
  facet normal -0.587853 -0.808968 0
    outer loop
      vertex 105 8.66025 0.5
      vertex 106.691 7.43145 3.5
      vertex 105 8.66025 3.5
    endloop
  endfacet
  facet normal -0.587853 -0.808968 -0
    outer loop
      vertex 106.691 7.43145 3.5
      vertex 105 8.66025 0.5
      vertex 106.691 7.43145 0.5
    endloop
  endfacet
  facet normal 0.207913 -0.978147 0
    outer loop
      vertex 96.9098 9.51056 0.5
      vertex 98.9547 9.94522 3.5
      vertex 96.9098 9.51056 3.5
    endloop
  endfacet
  facet normal 0.207913 -0.978147 0
    outer loop
      vertex 98.9547 9.94522 3.5
      vertex 96.9098 9.51056 0.5
      vertex 98.9547 9.94522 0.5
    endloop
  endfacet
  facet normal -0.406706 -0.913559 0
    outer loop
      vertex 103.09 9.51056 0.5
      vertex 105 8.66025 3.5
      vertex 103.09 9.51056 3.5
    endloop
  endfacet
  facet normal -0.406706 -0.913559 -0
    outer loop
      vertex 105 8.66025 3.5
      vertex 103.09 9.51056 0.5
      vertex 105 8.66025 0.5
    endloop
  endfacet
  facet normal 0.994523 0.104517 0
    outer loop
      vertex 90.2185 -2.07912 3.5
      vertex 90 0 0.5
      vertex 90 0 3.5
    endloop
  endfacet
  facet normal 0.994523 0.104517 0
    outer loop
      vertex 90 0 0.5
      vertex 90.2185 -2.07912 3.5
      vertex 90.2185 -2.07912 0.5
    endloop
  endfacet
  facet normal 0.866021 -0.500007 0
    outer loop
      vertex 90.8645 4.06737 3.5
      vertex 91.9098 5.87785 0.5
      vertex 91.9098 5.87785 3.5
    endloop
  endfacet
  facet normal 0.866021 -0.500007 0
    outer loop
      vertex 91.9098 5.87785 0.5
      vertex 90.8645 4.06737 3.5
      vertex 90.8645 4.06737 0.5
    endloop
  endfacet
  facet normal 0.406742 -0.913543 0
    outer loop
      vertex 95 8.66025 0.5
      vertex 96.9098 9.51056 3.5
      vertex 95 8.66025 3.5
    endloop
  endfacet
  facet normal 0.406742 -0.913543 0
    outer loop
      vertex 96.9098 9.51056 3.5
      vertex 95 8.66025 0.5
      vertex 96.9098 9.51056 0.5
    endloop
  endfacet
  facet normal -0.994498 -0.104754 0
    outer loop
      vertex 110 0 0.5
      vertex 109.781 2.07912 3.5
      vertex 109.781 2.07912 0.5
    endloop
  endfacet
  facet normal -0.994498 -0.104754 0
    outer loop
      vertex 109.781 2.07912 3.5
      vertex 110 0 0.5
      vertex 110 0 3.5
    endloop
  endfacet
  facet normal -0.587853 0.808968 0
    outer loop
      vertex 106.691 -7.43145 0.5
      vertex 105 -8.66025 3.5
      vertex 106.691 -7.43145 3.5
    endloop
  endfacet
  facet normal -0.587853 0.808968 0
    outer loop
      vertex 105 -8.66025 3.5
      vertex 106.691 -7.43145 0.5
      vertex 105 -8.66025 0.5
    endloop
  endfacet
  facet normal -0.866084 0.499899 0
    outer loop
      vertex 108.09 -5.87785 0.5
      vertex 109.135 -4.06737 3.5
      vertex 109.135 -4.06737 0.5
    endloop
  endfacet
  facet normal -0.866084 0.499899 0
    outer loop
      vertex 109.135 -4.06737 3.5
      vertex 108.09 -5.87785 0.5
      vertex 108.09 -5.87785 3.5
    endloop
  endfacet
  facet normal 0 1 -0
    outer loop
      vertex 101.045 -9.94522 0.5
      vertex 98.9547 -9.94522 3.5
      vertex 101.045 -9.94522 3.5
    endloop
  endfacet
  facet normal 0 1 0
    outer loop
      vertex 98.9547 -9.94522 3.5
      vertex 101.045 -9.94522 0.5
      vertex 98.9547 -9.94522 0.5
    endloop
  endfacet
  facet normal -0.406706 0.913559 0
    outer loop
      vertex 105 -8.66025 0.5
      vertex 103.09 -9.51056 3.5
      vertex 105 -8.66025 3.5
    endloop
  endfacet
  facet normal -0.406706 0.913559 0
    outer loop
      vertex 103.09 -9.51056 3.5
      vertex 105 -8.66025 0.5
      vertex 103.09 -9.51056 0.5
    endloop
  endfacet
  facet normal -0.95106 -0.309008 0
    outer loop
      vertex 109.781 2.07912 0.5
      vertex 109.135 4.06737 3.5
      vertex 109.135 4.06737 0.5
    endloop
  endfacet
  facet normal -0.95106 -0.309008 0
    outer loop
      vertex 109.135 4.06737 3.5
      vertex 109.781 2.07912 0.5
      vertex 109.781 2.07912 3.5
    endloop
  endfacet
  facet normal 0 -1 0
    outer loop
      vertex 98.9547 9.94522 0.5
      vertex 101.045 9.94522 3.5
      vertex 98.9547 9.94522 3.5
    endloop
  endfacet
  facet normal 0 -1 -0
    outer loop
      vertex 101.045 9.94522 3.5
      vertex 98.9547 9.94522 0.5
      vertex 101.045 9.94522 0.5
    endloop
  endfacet
  facet normal 0.95106 0.309008 0
    outer loop
      vertex 90.8645 -4.06737 3.5
      vertex 90.2185 -2.07912 0.5
      vertex 90.2185 -2.07912 3.5
    endloop
  endfacet
  facet normal 0.95106 0.309008 0
    outer loop
      vertex 90.2185 -2.07912 0.5
      vertex 90.8645 -4.06737 3.5
      vertex 90.8645 -4.06737 0.5
    endloop
  endfacet
  facet normal 0.743137 0.669139 0
    outer loop
      vertex 93.3087 -7.43145 3.5
      vertex 91.9098 -5.87785 0.5
      vertex 91.9098 -5.87785 3.5
    endloop
  endfacet
  facet normal 0.743137 0.669139 0
    outer loop
      vertex 91.9098 -5.87785 0.5
      vertex 93.3087 -7.43145 3.5
      vertex 93.3087 -7.43145 0.5
    endloop
  endfacet
  facet normal -0.95106 0.309008 0
    outer loop
      vertex 109.135 -4.06737 0.5
      vertex 109.781 -2.07912 3.5
      vertex 109.781 -2.07912 0.5
    endloop
  endfacet
  facet normal -0.95106 0.309008 0
    outer loop
      vertex 109.781 -2.07912 3.5
      vertex 109.135 -4.06737 0.5
      vertex 109.135 -4.06737 3.5
    endloop
  endfacet
  facet normal 0.207913 0.978147 -0
    outer loop
      vertex 98.9547 -9.94522 0.5
      vertex 96.9098 -9.51056 3.5
      vertex 98.9547 -9.94522 3.5
    endloop
  endfacet
  facet normal 0.207913 0.978147 0
    outer loop
      vertex 96.9098 -9.51056 3.5
      vertex 98.9547 -9.94522 0.5
      vertex 96.9098 -9.51056 0.5
    endloop
  endfacet
  facet normal -0.207903 0.978149 0
    outer loop
      vertex 103.09 -9.51056 0.5
      vertex 101.045 -9.94522 3.5
      vertex 103.09 -9.51056 3.5
    endloop
  endfacet
  facet normal -0.207903 0.978149 0
    outer loop
      vertex 101.045 -9.94522 3.5
      vertex 103.09 -9.51056 0.5
      vertex 101.045 -9.94522 0.5
    endloop
  endfacet
  facet normal 0.866021 0.500007 0
    outer loop
      vertex 91.9098 -5.87785 3.5
      vertex 90.8645 -4.06737 0.5
      vertex 90.8645 -4.06737 3.5
    endloop
  endfacet
  facet normal 0.866021 0.500007 0
    outer loop
      vertex 90.8645 -4.06737 0.5
      vertex 91.9098 -5.87785 3.5
      vertex 91.9098 -5.87785 0.5
    endloop
  endfacet
  facet normal 0.587785 0.809017 -0
    outer loop
      vertex 95 -8.66025 0.5
      vertex 93.3087 -7.43145 3.5
      vertex 95 -8.66025 3.5
    endloop
  endfacet
  facet normal 0.587785 0.809017 0
    outer loop
      vertex 93.3087 -7.43145 3.5
      vertex 95 -8.66025 0.5
      vertex 93.3087 -7.43145 0.5
    endloop
  endfacet
  facet normal -0.743113 0.669166 0
    outer loop
      vertex 106.691 -7.43145 0.5
      vertex 108.09 -5.87785 3.5
      vertex 108.09 -5.87785 0.5
    endloop
  endfacet
  facet normal -0.743113 0.669166 0
    outer loop
      vertex 108.09 -5.87785 3.5
      vertex 106.691 -7.43145 0.5
      vertex 106.691 -7.43145 3.5
    endloop
  endfacet
  facet normal 0.406742 0.913543 -0
    outer loop
      vertex 96.9098 -9.51056 0.5
      vertex 95 -8.66025 3.5
      vertex 96.9098 -9.51056 3.5
    endloop
  endfacet
  facet normal 0.406742 0.913543 0
    outer loop
      vertex 95 -8.66025 3.5
      vertex 96.9098 -9.51056 0.5
      vertex 95 -8.66025 0.5
    endloop
  endfacet
endsolid OpenSCAD_Model
